<svg width="21" height="20" viewBox="0 0 21 20" fill="none" xmlns="http://www.w3.org/2000/svg">
<path d="M16.5 16C15.39 16 14.5 16.89 14.5 18C14.5 18.5304 14.7107 19.0391 15.0858 19.4142C15.4609 19.7893 15.9696 20 16.5 20C17.0304 20 17.5391 19.7893 17.9142 19.4142C18.2893 19.0391 18.5 18.5304 18.5 18C18.5 17.4696 18.2893 16.9609 17.9142 16.5858C17.5391 16.2107 17.0304 16 16.5 16ZM0.5 0V2H2.5L6.1 9.59L4.74 12.04C4.59 12.32 4.5 12.65 4.5 13C4.5 13.5304 4.71071 14.0391 5.08579 14.4142C5.46086 14.7893 5.96957 15 6.5 15H18.5V13H6.92C6.8537 13 6.79011 12.9737 6.74322 12.9268C6.69634 12.8799 6.67 12.8163 6.67 12.75C6.67 12.7 6.68 12.66 6.7 12.63L7.6 11H15.05C15.8 11 16.46 10.58 16.8 9.97L20.38 3.5C20.45 3.34 20.5 3.17 20.5 3C20.5 2.73478 20.3946 2.48043 20.2071 2.29289C20.0196 2.10536 19.7652 2 19.5 2H4.71L3.77 0M6.5 16C5.39 16 4.5 16.89 4.5 18C4.5 18.5304 4.71071 19.0391 5.08579 19.4142C5.46086 19.7893 5.96957 20 6.5 20C7.03043 20 7.53914 19.7893 7.91421 19.4142C8.28929 19.0391 8.5 18.5304 8.5 18C8.5 17.4696 8.28929 16.9609 7.91421 16.5858C7.53914 16.2107 7.03043 16 6.5 16Z" fill="white"/>
</svg>
